# xmcd CD database file
# Copyright (C) 1993-1998 Ti Kan
#
# Track frame offsets:
# 182
# 3032
# 5470
# 7907
# 10332
# 12707
# 15145
# 18407
# 24482
# 29357
# 34307
# 39295
# 44132
# 50282
# 53695
# 56357
# 59057
# 62432
# 65082
# 68582
# 72032
# 74732
# 77507
# 80207
# 82982
# 85720
# 89857
# 101620
# 107507
# 112307
# 117257
# 122057
# 126857
# 131657
# 137207
# 140507
# 143357
# 146257
# 149132
# 151982
# 154907
# 159407
# 165482
# 170432
# 175382
# 178420
# 180932
# 186482
# 189282
# 191495
# 193720
# 195882
# 198070
# 200282
# 203282
# 208457
# 213032
# 215432
# 219932
# 223632
# 228182
# 230732
# 236132
# 241832
# 246482
# 251057
# 255632
#
# Disc length: 3511 seconds
# Revision: 0
# Processed by: cddbd v1.4b41PL1 Copyright (c) Steve Scherf et al.
# Submitted via: CDSpectrumPro v3.3.333
#
DISCID=ba0db543
DTITLE=Tommy Taylor's Old Time Sing-a-long - Old Time Singalong Favourites
DYEAR=1900
DGENRE=
TTITLE0=Kiss me good night sargent major
TTITLE1=Goodbye Dolly Gray
TTITLE2=Siegfried Line
TTITLE3=Sister Susie's sewing shirts for soldiers
TTITLE4=Yes we have no bananas
TTITLE5=Brown slouch hat
TTITLE6=Give my regards to Broadway
TTITLE7=Charmaine
TTITLE8=I'm always chasing rainbows
TTITLE9=In the chapple in the moonlight
TTITLE10=Blue moon
TTITLE11=Me and my shadow
TTITLE12=Ramona
TTITLE13=Where did you get that girl?
TTITLE14=Who were you with last night
TTITLE15=When you wore a tulip
TTITLE16=Somebody stole my gal
TTITLE17=I ain't got nobody
TTITLE18=Indiana
TTITLE19=Come back to Erin
TTITLE20=I belong to Glasgow
TTITLE21=Bless 'em all
TTITLE22=Memories
TTITLE23=My Bonnie lies over the ocean
TTITLE24=Sweet Rosie
TTITLE25=So long (its been good to know you)
TTITLE26=Lili Marlene
TTITLE27=Melancholy
TTITLE28=You were meant for me
TTITLE29=Trail of the lonesome pine
TTITLE30=Peg o'my heart
TTITLE31=The sunshine of your smile
TTITLE32=Down among the sweltering palms
TTITLE33=Roses of Picady
TTITLE34=Four leaf clover
TTITLE35=Pack up your troubles in your old kit bag (and smile, smile, sm
TTITLE36=Five foot two
TTITLE37=Roll out the barrell
TTITLE38=Tipperary
TTITLE39=When you're smiling
TTITLE40=Baby face
TTITLE41=Walkin' my baby back home
TTITLE42=It's a sin to tell a lie
TTITLE43=A white sports coat (and a pink carnation)
TTITLE44=Oh you beautiful doll
TTITLE45=Moonlight Bay
TTITLE46=Carolina in the morning
TTITLE47=Old soldiers never die
TTITLE48=Keep the home firs burning
TTITLE49=Mademoiselle from Armentieres
TTITLE50=H-A-R-R-I-G-A-N
TTITLE51=K-K-K-Katy
TTITLE52=Ther's a long, long trail
TTITLE53=Goodbye-ee
TTITLE54=Barefoot days
TTITLE55=For me and my gal
TTITLE56=Show me the way to go home
TTITLE57=I'm gonna sit right down and write myself a letter
TTITLE58=What do you wanna make those eyes at me for
TTITLE59=Have you ever been lonely
TTITLE60=By the light of the silvery moon
TTITLE61=Goodnight sweetheart
TTITLE62=Always
TTITLE63=I wonder who's kissing her now?
TTITLE64=Let the rest of the world go by
TTITLE65=Are you lonesome tonight?
TTITLE66=The one rose
EXTD=
EXTT0=
EXTT1=
EXTT2=
EXTT3=
EXTT4=
EXTT5=
EXTT6=
EXTT7=
EXTT8=
EXTT9=
EXTT10=
EXTT11=
EXTT12=
EXTT13=
EXTT14=
EXTT15=
EXTT16=
EXTT17=
EXTT18=
EXTT19=
EXTT20=
EXTT21=
EXTT22=
EXTT23=
EXTT24=
EXTT25=
EXTT26=
EXTT27=
EXTT28=
EXTT29=
EXTT30=
EXTT31=
EXTT32=
EXTT33=
EXTT34=
EXTT35=
EXTT36=
EXTT37=
EXTT38=
EXTT39=
EXTT40=
EXTT41=
EXTT42=
EXTT43=
EXTT44=
EXTT45=
EXTT46=
EXTT47=
EXTT48=
EXTT49=
EXTT50=
EXTT51=
EXTT52=
EXTT53=
EXTT54=
EXTT55=
EXTT56=
EXTT57=
EXTT58=
EXTT59=
EXTT60=
EXTT61=
EXTT62=
EXTT63=
EXTT64=
EXTT65=
EXTT66=
PLAYORDER=
